<?xml version="1.0" standalone="no"?>
<!DOCTYPE svg PUBLIC "-//W3C//DTD SVG 20010904//EN"
 "http://www.w3.org/TR/2001/REC-SVG-20010904/DTD/svg10.dtd">
<svg version="1.0" xmlns="http://www.w3.org/2000/svg"
 width="1080.000000pt" height="549.000000pt" viewBox="0 0 1080.000000 549.000000"
 preserveAspectRatio="xMidYMid meet">

<g transform="translate(0.000000,549.000000) scale(0.100000,-0.100000)"
fill="#fff" stroke="none">
<path d="M2300 4120 c-115 -42 -1122 -398 -1537 -543 l-263 -92 955 -3 c525
-1 1384 -1 1909 0 l954 3 -376 133 c-1062 376 -1533 542 -1535 541 -1 0 -49
-18 -107 -39z"/>
<path d="M620 3355 l0 -45 1790 0 1790 0 0 45 0 45 -1790 0 -1790 0 0 -45z"/>
<path d="M627 3253 c-4 -3 -7 -26 -7 -50 l0 -43 1790 0 1790 0 0 50 0 50
-1783 0 c-981 0 -1787 -3 -1790 -7z"/>
<path d="M683 3070 c-14 -6 -24 -21 -28 -42 -3 -18 -5 -379 -3 -801 3 -748 4
-769 22 -783 14 -10 50 -14 126 -14 91 0 109 3 123 18 16 17 17 87 17 803 0
662 -2 788 -14 805 -12 16 -29 19 -118 21 -57 2 -113 -2 -125 -7z"/>
<path d="M1222 3064 l-22 -15 0 -793 c0 -755 1 -794 18 -809 15 -14 40 -17
121 -17 56 0 111 5 122 10 19 10 19 30 19 810 l0 799 -22 15 c-17 12 -48 16
-118 16 -70 0 -101 -4 -118 -16z"/>
<path d="M1762 3064 l-22 -15 0 -799 c0 -780 0 -800 19 -810 11 -5 67 -10 124
-10 88 0 106 3 120 18 16 17 17 88 17 810 l0 791 -22 15 c-17 12 -48 16 -118
16 -70 0 -101 -4 -118 -16z"/>
<path d="M2282 3064 l-22 -15 0 -793 c0 -755 1 -794 18 -809 15 -14 40 -17
121 -17 56 0 111 5 122 10 19 10 19 30 19 810 l0 799 -22 15 c-17 12 -48 16
-118 16 -70 0 -101 -4 -118 -16z"/>
<path d="M2821 3063 l-21 -18 0 -795 c0 -736 1 -796 17 -807 11 -9 54 -13 123
-13 91 0 109 3 123 18 16 17 17 88 17 810 l0 791 -22 15 c-34 24 -208 22 -237
-1z"/>
<path d="M3400 3074 c-40 -16 -40 -8 -40 -819 0 -690 2 -783 16 -803 14 -21
23 -22 129 -22 106 0 115 1 129 22 14 20 16 113 16 803 0 658 -2 784 -14 801
-12 16 -28 19 -118 21 -57 1 -110 0 -118 -3z"/>
<path d="M3913 3070 c-14 -6 -24 -21 -28 -42 -3 -18 -5 -379 -3 -801 3 -748 4
-769 22 -783 14 -10 50 -14 126 -14 91 0 109 3 123 18 16 17 17 87 17 805 0
926 16 827 -137 826 -54 0 -108 -4 -120 -9z"/>
<path d="M4852 2962 c-53 -19 -104 -59 -125 -97 -32 -59 -24 -162 15 -216 64
-87 218 -110 355 -54 l71 30 -25 43 c-29 48 -34 51 -48 20 -20 -47 -177 -68
-233 -32 -61 40 -83 96 -62 158 23 70 104 106 199 87 30 -6 65 -21 78 -33 13
-12 25 -20 27 -17 2 2 15 23 30 47 24 38 25 46 4 43 -4 0 -26 6 -49 15 -72 25
-176 28 -237 6z"/>
<path d="M7295 2965 c-22 -8 -48 -24 -57 -36 -24 -29 -23 -81 2 -104 23 -21
26 -35 6 -35 -8 0 -28 -16 -45 -35 -102 -116 79 -249 232 -171 l47 23 47 -23
c25 -13 57 -24 70 -24 21 0 23 4 22 53 0 28 -3 46 -6 40 -7 -19 -37 -16 -56 5
-15 16 -15 20 3 50 21 35 30 38 48 20 9 -9 12 2 12 50 0 34 -2 62 -5 62 -19 0
-67 -35 -93 -66 l-30 -36 -17 31 c-15 30 -15 33 5 58 68 87 -62 184 -185 138z
m103 -61 c24 -17 29 -53 10 -72 -7 -7 -28 -12 -48 -12 -43 0 -60 15 -60 52 0
43 56 62 98 32z m15 -188 c22 -47 17 -63 -25 -80 -35 -15 -79 -7 -109 20 -47
42 2 107 75 102 37 -3 43 -7 59 -42z"/>
<path d="M8145 2971 c-43 -11 -107 -46 -127 -68 -48 -53 -61 -149 -29 -218 53
-118 213 -156 372 -88 35 14 66 28 68 30 2 1 -9 22 -24 45 -25 38 -29 40 -36
21 -17 -47 -171 -73 -234 -41 -55 29 -70 54 -70 118 0 51 4 63 28 88 41 43
104 58 174 43 30 -7 63 -21 74 -32 10 -10 21 -19 23 -19 5 0 58 81 54 84 -2 1
-27 10 -57 19 -64 20 -174 29 -216 18z"/>
<path d="M5366 2896 c-144 -54 -156 -245 -19 -312 56 -28 174 -26 229 3 59 31
84 76 84 150 0 73 -26 119 -85 148 -51 25 -156 30 -209 11z m185 -83 c97 -96
-29 -240 -154 -177 -47 23 -67 53 -67 99 0 72 60 119 143 112 37 -3 56 -11 78
-34z"/>
<path d="M5755 2900 c-3 -5 -1 -10 4 -10 15 0 15 -296 1 -305 -29 -18 17 -25
166 -25 l164 0 0 41 c0 36 -2 40 -17 33 -10 -5 -64 -10 -121 -12 l-103 -3 3
145 3 146 -47 0 c-26 0 -50 -4 -53 -10z"/>
<path d="M6208 2745 c2 -118 0 -165 -8 -165 -6 0 -8 -4 -5 -10 8 -13 115 -13
115 -1 0 6 -4 13 -10 16 -6 4 -10 65 -10 150 0 85 4 146 10 150 24 15 6 25
-42 25 l-53 0 3 -165z"/>
<path d="M6445 2901 c-3 -5 -1 -12 5 -16 15 -9 13 -288 -2 -303 -15 -15 9 -25
54 -20 24 2 32 7 28 18 -9 30 -11 190 -3 205 7 13 28 -4 104 -87 53 -57 98
-111 102 -120 5 -13 18 -18 49 -18 l43 0 0 175 0 175 -40 0 -40 0 3 -110 c2
-60 2 -110 -1 -110 -12 0 -173 173 -181 195 -9 22 -16 25 -62 25 -29 0 -55 -4
-59 -9z"/>
<path d="M8626 2895 c-75 -29 -109 -79 -109 -162 0 -125 124 -199 272 -163
156 37 189 234 52 314 -44 26 -161 32 -215 11z m191 -89 c39 -43 44 -90 12
-130 -46 -58 -122 -72 -180 -33 -66 44 -75 119 -21 169 36 34 49 38 106 34 42
-3 55 -9 83 -40z"/>
<path d="M9020 2901 c0 -6 5 -13 10 -16 6 -4 10 -65 10 -150 0 -85 -4 -146
-10 -150 -31 -19 5 -25 160 -25 l170 0 0 41 c0 36 -2 40 -17 33 -10 -5 -65 -9
-123 -9 l-105 0 -3 124 c-2 73 1 128 8 136 5 6 7 15 3 18 -10 11 -103 8 -103
-2z"/>
<path d="M9460 2901 c0 -6 5 -13 10 -16 6 -4 10 -65 10 -150 0 -85 -4 -146
-10 -150 -24 -15 -6 -25 46 -25 50 0 55 2 48 18 -11 22 -11 291 0 315 7 15 2
17 -48 17 -31 0 -56 -4 -56 -9z"/>
<path d="M9715 2735 l0 -175 42 0 c41 0 63 13 43 25 -11 7 -14 215 -2 214 13
-2 197 -206 200 -223 3 -14 13 -16 48 -14 l45 3 2 173 2 172 -40 0 -40 0 3
-117 3 -118 -100 105 c-55 58 -101 111 -101 118 0 8 -17 12 -52 12 l-53 0 0
-175z"/>
<path d="M5765 2175 l0 -105 103 0 c94 0 102 1 102 19 0 18 -7 20 -77 19 l-78
-1 -3 87 c-3 81 -4 86 -25 86 -21 0 -22 -3 -22 -105z"/>
<path d="M6018 2160 l3 -90 80 0 c64 0 79 3 79 15 0 12 -14 15 -65 15 -62 0
-65 1 -65 24 0 22 5 25 42 28 56 4 62 25 6 24 -37 -1 -43 2 -46 22 -3 21 0 22
57 22 48 0 61 3 61 15 0 12 -15 15 -77 15 l-78 0 3 -90z"/>
<path d="M6260 2228 c-29 -20 -36 -31 -38 -65 -3 -34 1 -44 23 -62 34 -26 84
-36 132 -24 35 8 38 12 41 46 l3 37 -45 0 c-32 0 -46 -4 -46 -13 0 -9 10 -12
31 -9 26 4 30 2 27 -14 -5 -26 -88 -32 -112 -9 -21 22 -20 68 2 88 21 19 73
22 102 7 13 -7 21 -7 26 1 11 18 -12 32 -63 36 -39 4 -55 0 -83 -19z"/>
<path d="M6540 2240 c0 -5 -17 -46 -38 -90 -37 -78 -38 -80 -16 -80 15 0 24 8
28 26 6 23 10 25 54 22 40 -3 47 -6 50 -25 2 -17 10 -23 27 -23 27 0 28 -6
-19 95 -16 33 -29 66 -29 73 0 14 -57 17 -57 2z m50 -87 c0 -7 -11 -13 -25
-13 -27 0 -31 10 -14 42 11 21 12 21 25 3 8 -10 14 -25 14 -32z"/>
<path d="M6713 2242 c9 -13 12 -147 4 -159 -6 -10 12 -13 82 -13 74 0 91 3 91
15 0 12 -14 15 -66 15 l-66 0 4 75 3 75 -28 0 c-16 0 -26 -3 -24 -8z"/>
<path d="M7082 2234 c-24 -16 -30 -58 -10 -70 7 -4 35 -13 63 -19 63 -14 68
-39 9 -43 -27 -2 -47 2 -57 12 -15 16 -27 12 -27 -10 0 -14 51 -34 87 -34 41
0 83 28 83 55 0 29 -10 36 -75 50 -31 7 -51 17 -53 27 -4 22 29 28 74 12 30
-10 40 -10 46 -1 19 31 -100 49 -140 21z"/>
<path d="M7311 2224 c-60 -50 -33 -134 48 -150 104 -21 172 77 102 147 -40 40
-105 41 -150 3z m132 -36 l21 -28 -21 -27 c-33 -45 -100 -44 -121 3 -13 26
-10 36 17 67 23 27 79 19 104 -15z"/>
<path d="M7555 2160 l0 -90 83 0 c71 0 82 2 82 18 0 15 -8 17 -66 14 l-66 -4
4 76 c3 70 2 76 -17 76 -19 0 -20 -7 -20 -90z"/>
<path d="M7780 2179 c5 -60 9 -74 30 -91 20 -16 34 -19 74 -14 72 8 86 25 86
108 0 58 -3 68 -17 68 -16 0 -18 -8 -15 -58 4 -69 -11 -92 -62 -92 -46 0 -56
15 -56 87 0 59 -2 63 -23 63 -21 0 -22 -2 -17 -71z"/>
<path d="M8026 2235 c4 -9 19 -15 35 -15 l29 0 0 -75 c0 -68 2 -75 20 -75 18
0 20 7 20 76 l0 76 35 -4 c29 -3 35 -1 35 14 0 16 -10 18 -90 18 -75 0 -88 -2
-84 -15z"/>
<path d="M8260 2235 c8 -10 11 -40 8 -90 -3 -70 -2 -75 17 -75 19 0 20 6 20
90 l0 90 -29 0 c-24 0 -27 -2 -16 -15z"/>
<path d="M8399 2221 c-70 -70 -6 -165 99 -148 51 9 82 42 82 88 0 83 -118 122
-181 60z m124 -18 c40 -46 14 -103 -47 -103 -62 0 -91 49 -55 93 24 32 77 37
102 10z"/>
<path d="M8635 2160 c0 -83 1 -90 20 -90 18 0 20 5 17 60 -2 36 0 60 6 60 6 0
35 -27 65 -60 77 -85 87 -82 87 30 0 79 -2 90 -17 90 -16 0 -18 -8 -15 -61 l4
-61 -24 18 c-12 9 -39 37 -58 60 -24 29 -43 43 -60 43 -25 1 -25 0 -25 -89z"/>
<path d="M8922 2234 c-24 -16 -30 -58 -10 -70 7 -4 35 -13 63 -19 63 -14 68
-39 9 -43 -27 -2 -47 2 -57 12 -13 14 -16 14 -21 0 -8 -22 -9 -21 25 -33 67
-23 139 0 139 44 0 28 -21 42 -79 51 -45 7 -70 27 -50 40 18 11 79 6 96 -8 11
-9 16 -9 24 3 20 32 -97 53 -139 23z"/>
</g>
</svg>
